<?xml version="1.0" encoding="UTF-8"?>
<svg width="4771px" height="668px" viewBox="0 0 4771 668" version="1.1" xmlns="http://www.w3.org/2000/svg" xmlns:xlink="http://www.w3.org/1999/xlink">
    <!-- Generator: Sketch 52.3 (67297) - http://www.bohemiancoding.com/sketch -->
    <title>&lt;CodeMeetr/&gt; 2</title>
    <desc>Created with Sketch.</desc>
    <g id="Page-2" stroke="none" stroke-width="1" fill="none" fill-rule="evenodd">
        <g id="&lt;CodeMeetr/&gt;-2" fill="#000000">
            <path d="M439.844126,618.729097 C438.044126,629.529097 430.844126,634.029097 420.044126,627.729097 L8.69615126,429.285091 C1.49615126,424.785091 -1.20384874,418.485091 0.596151262,409.485091 L11.3961513,350.085091 C13.1961513,341.985091 17.6961513,336.585091 24.8961513,332.985091 L423.644126,143.030072 C434.444126,137.630072 442.544126,143.030072 439.844126,155.630072 L419.096151,267.285091 C417.296151,274.485091 412.796151,279.885091 404.696151,283.485091 L158.096151,378.885091 L374.996151,478.762714 C383.096151,483.262714 388.079968,489.695505 386.279968,498.695505 C385.820362,517.479359 387.98064,532.38947 392.760801,543.425838 C405.960801,573.901808 421.655242,599.002894 439.844126,618.729097 Z M851.8,610.1 C796,643.4 726.7,667.7 637.6,667.7 C489.1,667.7 400.9,572.3 428.8,410.3 L460.3,227.6 C486.4,77.3 597.1,0.8 742.9,0.8 C813.1,0.8 876.1,25.1 920.2,62 C928.3,67.4 928.3,75.5 922,83.6 L856.3,161 C850.9,168.2 843.7,169.1 834.7,163.7 C805.9,143.9 769,131.3 730.3,131.3 C658.3,131.3 615.1,175.4 604.3,242 L572.8,423.8 C561.1,496.7 593.5,536.3 663.7,536.3 C705.1,536.3 752.8,521.9 790.6,496.7 C799.6,491.3 806.8,493.1 812.2,503 L854.5,591.2 C859,601.1 858.1,606.5 851.8,610.1 Z M1266.3,489.5 C1245.6,602.9 1163.7,667.7 1031.4,667.7 C910.8,667.7 837.9,577.7 858.6,463.4 L877.5,351.8 C897.3,242.9 985.5,175.4 1110.6,175.4 C1233.9,175.4 1305.9,266.3 1287,376.1 L1266.3,489.5 Z M993.6,476.9 C985.5,521 1004.4,549.8 1046.7,549.8 C1093.5,549.8 1122.3,524.6 1129.5,482.3 L1150.2,367.1 C1157.4,326.6 1138.5,293.3 1095.3,293.3 C1052.1,293.3 1021.5,320.3 1014.3,360.8 L993.6,476.9 Z M1652.9,634.4 C1601.6,655.1 1532.3,667.7 1472.9,667.7 C1342.4,667.7 1270.4,578.6 1291.1,458.9 L1310,355.4 C1328.9,248.3 1410.8,175.4 1517.9,175.4 C1551.2,175.4 1582.7,182.6 1605.2,194.3 L1634.9,26.9 C1636.7,17.9 1642.1,12.5 1651.1,12.5 L1755.5,12.5 C1766.3,12.5 1771.7,19.7 1769.9,29.6 L1666.4,618.2 C1665.5,626.3 1661,631.7 1652.9,634.4 Z M1427.9,468.8 C1417.1,525.5 1436.9,548 1485.5,548 C1507.1,548 1530.5,544.4 1544.9,538.1 L1585.4,305.9 C1571,296 1548.5,290.6 1526,290.6 C1482.8,290.6 1454.9,317.6 1445,372.5 L1427.9,468.8 Z M1749.7,348.2 C1771.3,230.3 1864.9,175.4 1973.8,175.4 C2089,175.4 2170.9,236.6 2146.6,368.9 L2131.3,456.2 C2129.5,465.2 2124.1,469.7 2115.1,469.7 L1864.9,469.7 L1862.2,482.3 C1853.2,530 1874.8,553.4 1924.3,553.4 C1963.9,553.4 2005.3,539 2041.3,517.4 C2050.3,511.1 2057.5,512 2062,521.9 L2098.9,591.2 C2102.5,600.2 2101.6,608.3 2093.5,612.8 C2044.9,646.1 1983.7,667.7 1905.4,667.7 C1787.5,667.7 1705.6,595.7 1726.3,478.7 L1749.7,348.2 Z M2017,357.2 C2023.3,321.2 2008,289.7 1962.1,289.7 C1923.4,289.7 1893.7,313.1 1885.6,355.4 L1881.1,379.7 L2012.5,379.7 L2017,357.2 Z M2158.8,656 C2148,656 2142.6,648.8 2144.4,638.9 L2251.5,26.9 C2253.3,17.9 2258.7,12.5 2267.7,12.5 L2394.6,12.5 C2403.6,12.5 2409.9,16.1 2412.6,26 L2457.6,179.9 C2472,235.7 2494.5,326.6 2502.6,364.4 L2505.3,364.4 C2526,327.5 2578.2,235.7 2615.1,178.1 L2715.9,22.4 C2720.4,15.2 2725.8,12.5 2734.8,12.5 L2866.2,12.5 C2877,12.5 2882.4,19.7 2880.6,29.6 L2773.5,641.6 C2771.7,650.6 2766.3,656 2756.4,656 L2646.6,656 C2636.7,656 2631.3,648.8 2632.2,638.9 L2652,524.6 C2663.7,454.4 2688.9,332 2708.7,239.3 L2704.2,238.4 C2682.6,279.8 2634,362.6 2598,421.1 L2540.4,511.1 C2535.9,519.2 2530.5,521.9 2522.4,521.9 L2440.5,521.9 C2431.5,521.9 2425.2,517.4 2422.5,508.4 L2395.5,416.6 C2381.1,360.8 2360.4,283.4 2352.3,242.9 L2347.8,242.9 C2336.1,337.4 2319,443.6 2306.4,521.9 L2285.7,641.6 C2284.8,651.5 2278.5,656 2268.6,656 L2158.8,656 Z M2869.4,348.2 C2891,230.3 2984.6,175.4 3093.5,175.4 C3208.7,175.4 3290.6,236.6 3266.3,368.9 L3251,456.2 C3249.2,465.2 3243.8,469.7 3234.8,469.7 L2984.6,469.7 L2981.9,482.3 C2972.9,530 2994.5,553.4 3044,553.4 C3083.6,553.4 3125,539 3161,517.4 C3170,511.1 3177.2,512 3181.7,521.9 L3218.6,591.2 C3222.2,600.2 3221.3,608.3 3213.2,612.8 C3164.6,646.1 3103.4,667.7 3025.1,667.7 C2907.2,667.7 2825.3,595.7 2846,478.7 L2869.4,348.2 Z M3136.7,357.2 C3143,321.2 3127.7,289.7 3081.8,289.7 C3043.1,289.7 3013.4,313.1 3005.3,355.4 L3000.8,379.7 L3132.2,379.7 L3136.7,357.2 Z M3287.5,348.2 C3309.1,230.3 3402.7,175.4 3511.6,175.4 C3626.8,175.4 3708.7,236.6 3684.4,368.9 L3669.1,456.2 C3667.3,465.2 3661.9,469.7 3652.9,469.7 L3402.7,469.7 L3400,482.3 C3391,530 3412.6,553.4 3462.1,553.4 C3501.7,553.4 3543.1,539 3579.1,517.4 C3588.1,511.1 3595.3,512 3599.8,521.9 L3636.7,591.2 C3640.3,600.2 3639.4,608.3 3631.3,612.8 C3582.7,646.1 3521.5,667.7 3443.2,667.7 C3325.3,667.7 3243.4,595.7 3264.1,478.7 L3287.5,348.2 Z M3554.8,357.2 C3561.1,321.2 3545.8,289.7 3499.9,289.7 C3461.2,289.7 3431.5,313.1 3423.4,355.4 L3418.9,379.7 L3550.3,379.7 L3554.8,357.2 Z M3855.9,313.1 L3825.3,486.8 C3818.1,527.3 3832.5,548.9 3869.4,548.9 L3893.7,548.9 C3904.5,548 3910.8,552.5 3908.1,564.2 L3893.7,647.9 C3891.9,656.9 3887.4,662.3 3878.4,663.2 C3864.9,665.9 3847.8,667.7 3832.5,667.7 C3732.6,667.7 3668.7,607.4 3692.1,476 L3759.6,89.9 C3761.4,80.9 3766.8,75.5 3776.7,75.5 L3864.9,75.5 C3875.7,75.5 3881.1,81.8 3880.2,91.7 L3874.8,198.8 L3946.8,198.8 C3957.6,198.8 3963,206 3961.2,215.9 L3946.8,298.7 C3945,308.6 3939.6,313.1 3929.7,313.1 L3855.9,313.1 Z M3927.5,656 C3916.7,656 3911.3,648.8 3913.1,638.9 L3984.2,230.3 C3986,222.2 3990.5,216.8 3997.7,213.2 C4049.9,188.9 4107.5,175.4 4164.2,175.4 C4188.5,175.4 4212.8,178.1 4238.9,183.5 C4248.8,185.3 4253.3,192.5 4251.5,201.5 L4235.3,289.7 C4234.4,299.6 4227.2,304.1 4217.3,303.2 C4202,300.5 4184,298.7 4165.1,298.7 C4141.7,298.7 4121.9,303.2 4106.6,309.5 L4048.1,641.6 C4046.3,650.6 4040.9,656 4031.9,656 L3927.5,656 Z M4229.8,646.4 C4226.6,652.8 4221,656 4213.8,656 L4123.4,656 C4112.2,656 4108.2,648.8 4113.8,639.2 L4424.2,93.6 C4427.4,87.2 4433,84 4440.2,84 L4529,84 C4539.4,84 4544.2,91.2 4538.6,100.8 L4229.8,646.4 Z M4302.51387,630.56198 C4290.81387,635.96198 4283.61387,629.66198 4285.41387,617.06198 L4360.0797,488.88907 C4364.24062,476.67172 4372.8945,477.636354 4380.9945,474.036354 L4611.83468,374.279525 L4467.8,325.260454 C4459.7,320.760454 4456.1,314.460454 4457,305.460454 L4504.27886,219.59075 C4506.97886,208.79075 4514.17886,204.29075 4524.07886,210.59075 L4761.23468,331.079525 C4768.43468,335.579525 4771.13468,341.879525 4770.23468,350.879525 L4758.53468,408.479525 C4757.63468,416.579525 4753.13468,421.979525 4745.93468,425.579525 L4302.51387,630.56198 Z" id="&lt;CodeMeetr/&gt;"></path>
        </g>
    </g>
</svg>